<svg width="60" height="31" viewBox="0 0 60 31" fill="none" xmlns="http://www.w3.org/2000/svg">
<path d="M7.12646 8.2168H2.65869L1.65527 11H0.205078L4.27734 0.335938H5.50781L9.5874 11H8.14453L7.12646 8.2168ZM3.0835 7.05957H6.70898L4.89258 2.07178L3.0835 7.05957ZM12.685 3.0752L12.7216 3.9541C13.3026 3.27051 14.0863 2.92871 15.0727 2.92871C16.1811 2.92871 16.9354 3.35352 17.3358 4.20312C17.5995 3.82227 17.9413 3.51465 18.3612 3.28027C18.786 3.0459 19.2865 2.92871 19.8627 2.92871C21.601 2.92871 22.4848 3.84912 22.5141 5.68994V11H21.1591V5.77051C21.1591 5.2041 21.0297 4.78174 20.7709 4.50342C20.5121 4.22021 20.0775 4.07861 19.4672 4.07861C18.9643 4.07861 18.5468 4.22998 18.2147 4.53271C17.8827 4.83057 17.6898 5.2334 17.6361 5.74121V11H16.2738V5.80713C16.2738 4.65479 15.7099 4.07861 14.5819 4.07861C13.6933 4.07861 13.0854 4.45703 12.7582 5.21387V11H11.4032V3.0752H12.685ZM30.0574 11C29.9793 10.8438 29.9158 10.5654 29.867 10.165C29.2371 10.8193 28.4852 11.1465 27.6111 11.1465C26.8299 11.1465 26.1878 10.9268 25.6849 10.4873C25.1868 10.043 24.9378 9.48145 24.9378 8.80273C24.9378 7.97754 25.2503 7.33789 25.8753 6.88379C26.5052 6.4248 27.389 6.19531 28.5267 6.19531H29.845V5.57275C29.845 5.09912 29.7034 4.72314 29.4202 4.44482C29.137 4.16162 28.7195 4.02002 28.1678 4.02002C27.6844 4.02002 27.2791 4.14209 26.952 4.38623C26.6248 4.63037 26.4612 4.92578 26.4612 5.27246H25.0989C25.0989 4.87695 25.2381 4.49609 25.5164 4.12988C25.7996 3.75879 26.1805 3.46582 26.659 3.25098C27.1424 3.03613 27.6722 2.92871 28.2483 2.92871C29.1614 2.92871 29.8768 3.1582 30.3943 3.61719C30.9119 4.07129 31.1805 4.69873 31.2 5.49951V9.14697C31.2 9.87451 31.2928 10.4531 31.4783 10.8828V11H30.0574ZM27.8089 9.96729C28.2337 9.96729 28.6365 9.85742 29.0174 9.6377C29.3982 9.41797 29.6741 9.13232 29.845 8.78076V7.15479H28.783C27.1229 7.15479 26.2928 7.64062 26.2928 8.6123C26.2928 9.03711 26.4344 9.36914 26.7176 9.6084C27.0008 9.84766 27.3646 9.96729 27.8089 9.96729ZM35.1984 9.89404H39.8347V11H33.5432V10.0039L37.9157 4.1958H33.6091V3.0752H39.6149V4.03467L35.1984 9.89404ZM41.4894 6.96436C41.4894 6.18799 41.6407 5.48975 41.9435 4.86963C42.2511 4.24951 42.6759 3.771 43.2179 3.43408C43.7647 3.09717 44.3873 2.92871 45.0855 2.92871C46.1646 2.92871 47.0362 3.30225 47.7003 4.04932C48.3692 4.79639 48.7037 5.79004 48.7037 7.03027V7.12549C48.7037 7.89697 48.5548 8.59033 48.2569 9.20557C47.964 9.81592 47.5416 10.292 46.9898 10.6338C46.443 10.9756 45.8131 11.1465 45.1002 11.1465C44.026 11.1465 43.1544 10.7729 42.4855 10.0259C41.8214 9.27881 41.4894 8.29004 41.4894 7.05957V6.96436ZM42.8517 7.12549C42.8517 8.00439 43.0543 8.70996 43.4596 9.24219C43.8697 9.77441 44.4166 10.0405 45.1002 10.0405C45.7887 10.0405 46.3355 9.77197 46.7408 9.23486C47.1461 8.69287 47.3487 7.93604 47.3487 6.96436C47.3487 6.09521 47.1412 5.39209 46.7262 4.85498C46.316 4.31299 45.7691 4.04199 45.0855 4.04199C44.4166 4.04199 43.8771 4.30811 43.4669 4.84033C43.0567 5.37256 42.8517 6.13428 42.8517 7.12549ZM52.2847 3.0752L52.3286 4.07129C52.9341 3.30957 53.7251 2.92871 54.7017 2.92871C56.3765 2.92871 57.2212 3.87354 57.2358 5.76318V11H55.8809V5.75586C55.876 5.18457 55.7441 4.76221 55.4854 4.48877C55.2314 4.21533 54.8335 4.07861 54.2915 4.07861C53.8521 4.07861 53.4663 4.1958 53.1343 4.43018C52.8022 4.66455 52.5435 4.97217 52.3579 5.35303V11H51.0029V3.0752H52.2847ZM9.08203 26.6162C8.9502 27.7441 8.53271 28.6157 7.82959 29.231C7.13135 29.8413 6.20117 30.1465 5.03906 30.1465C3.7793 30.1465 2.76855 29.6948 2.00684 28.7915C1.25 27.8882 0.871582 26.6797 0.871582 25.166V24.1406C0.871582 23.1494 1.04736 22.2778 1.39893 21.5259C1.75537 20.7739 2.2583 20.1978 2.90771 19.7974C3.55713 19.3921 4.30908 19.1895 5.16357 19.1895C6.29639 19.1895 7.20459 19.5068 7.88818 20.1416C8.57178 20.7715 8.96973 21.6455 9.08203 22.7637H7.66846C7.54639 21.9141 7.28027 21.2988 6.87012 20.918C6.46484 20.5371 5.896 20.3467 5.16357 20.3467C4.26514 20.3467 3.55957 20.6787 3.04688 21.3428C2.53906 22.0068 2.28516 22.9517 2.28516 24.1772V25.21C2.28516 26.3672 2.52686 27.2876 3.01025 27.9712C3.49365 28.6548 4.16992 28.9966 5.03906 28.9966C5.82031 28.9966 6.41846 28.8208 6.8335 28.4692C7.25342 28.1128 7.53174 27.4951 7.66846 26.6162H9.08203ZM14.6845 30.1465C13.6103 30.1465 12.7362 29.7949 12.0624 29.0918C11.3886 28.3838 11.0517 27.439 11.0517 26.2573V26.0083C11.0517 25.2222 11.2006 24.5215 11.4984 23.9062C11.8012 23.2861 12.2211 22.8027 12.7582 22.4561C13.3002 22.1045 13.8861 21.9287 14.516 21.9287C15.5463 21.9287 16.3471 22.2681 16.9184 22.9468C17.4896 23.6255 17.7753 24.5972 17.7753 25.8618V26.4258H12.4066C12.4262 27.207 12.6532 27.8394 13.0878 28.3228C13.5272 28.8013 14.0839 29.0405 14.7577 29.0405C15.2362 29.0405 15.6415 28.9429 15.9735 28.7476C16.3056 28.5522 16.5961 28.2935 16.8451 27.9712L17.6728 28.6157C17.0087 29.6362 16.0126 30.1465 14.6845 30.1465ZM14.516 23.042C13.9691 23.042 13.5102 23.2422 13.1391 23.6426C12.768 24.0381 12.5385 24.5947 12.4506 25.3125H16.4203V25.21C16.3813 24.5215 16.1957 23.9893 15.8637 23.6133C15.5316 23.2324 15.0824 23.042 14.516 23.042ZM23.7806 23.291C23.5755 23.2568 23.3533 23.2397 23.1141 23.2397C22.2254 23.2397 21.6224 23.6182 21.305 24.375V30H19.95V22.0752H21.2684L21.2903 22.9907C21.7347 22.2827 22.3646 21.9287 23.18 21.9287C23.4437 21.9287 23.6438 21.9629 23.7806 22.0312V23.291ZM27.8376 20.1562V22.0752H29.3171V23.1226H27.8376V28.0371C27.8376 28.3545 27.9035 28.5938 28.0354 28.7549C28.1672 28.9111 28.3918 28.9893 28.7092 28.9893C28.8654 28.9893 29.0803 28.96 29.3537 28.9014V30C28.9973 30.0977 28.6506 30.1465 28.3137 30.1465C27.7082 30.1465 27.2517 29.9634 26.944 29.5972C26.6364 29.231 26.4826 28.7109 26.4826 28.0371V23.1226H25.0397V22.0752H26.4826V20.1562H27.8376ZM32.9786 30H31.6236V22.0752H32.9786V30ZM31.5138 19.9731C31.5138 19.7534 31.5797 19.5679 31.7115 19.4165C31.8482 19.2651 32.0484 19.1895 32.3121 19.1895C32.5758 19.1895 32.776 19.2651 32.9127 19.4165C33.0494 19.5679 33.1178 19.7534 33.1178 19.9731C33.1178 20.1929 33.0494 20.376 32.9127 20.5225C32.776 20.6689 32.5758 20.7422 32.3121 20.7422C32.0484 20.7422 31.8482 20.6689 31.7115 20.5225C31.5797 20.376 31.5138 20.1929 31.5138 19.9731ZM36.208 30V23.1226H34.9556V22.0752H36.208V21.4014C36.208 20.5176 36.4595 19.8291 36.9624 19.3359C37.4702 18.8428 38.1855 18.5962 39.1084 18.5962C39.6553 18.5962 40.3462 18.7451 41.1812 19.043L40.9541 20.1855C40.3438 19.9414 39.7627 19.8193 39.2109 19.8193C38.6299 19.8193 38.21 19.9512 37.9512 20.2148C37.6973 20.4736 37.5703 20.8643 37.5703 21.3867V22.0752H39.189V23.1226H37.5703V30H36.208ZM41.855 30H40.4927V22.0752H41.855V30ZM47.9481 30.1465C46.8739 30.1465 45.9999 29.7949 45.3261 29.0918C44.6522 28.3838 44.3153 27.439 44.3153 26.2573V26.0083C44.3153 25.2222 44.4643 24.5215 44.7621 23.9062C45.0648 23.2861 45.4848 22.8027 46.0219 22.4561C46.5639 22.1045 47.1498 21.9287 47.7797 21.9287C48.81 21.9287 49.6107 22.2681 50.182 22.9468C50.7533 23.6255 51.039 24.5972 51.039 25.8618V26.4258H45.6703C45.6898 27.207 45.9169 27.8394 46.3515 28.3228C46.7909 28.8013 47.3476 29.0405 48.0214 29.0405C48.4999 29.0405 48.9052 28.9429 49.2372 28.7476C49.5692 28.5522 49.8598 28.2935 50.1088 27.9712L50.9364 28.6157C50.2724 29.6362 49.2763 30.1465 47.9481 30.1465ZM47.7797 23.042C47.2328 23.042 46.7738 23.2422 46.4027 23.6426C46.0316 24.0381 45.8021 24.5947 45.7143 25.3125H49.684V25.21C49.6449 24.5215 49.4594 23.9893 49.1273 23.6133C48.7953 23.2324 48.3461 23.042 47.7797 23.042ZM52.8841 25.9717C52.8841 24.7559 53.1722 23.7793 53.7483 23.042C54.3245 22.2998 55.0789 21.9287 56.0115 21.9287C56.9393 21.9287 57.6741 22.2461 58.2161 22.8809V18.75H59.5711V30H58.326L58.2601 29.1504C57.7181 29.8145 56.9637 30.1465 55.9969 30.1465C55.0789 30.1465 54.3294 29.7705 53.7483 29.0186C53.1722 28.2666 52.8841 27.2852 52.8841 26.0742V25.9717ZM54.2391 26.1255C54.2391 27.0239 54.4246 27.7271 54.7957 28.2349C55.1668 28.7427 55.6795 28.9966 56.3338 28.9966C57.1932 28.9966 57.8206 28.6108 58.2161 27.8394V24.1992C57.8108 23.4521 57.1883 23.0786 56.3484 23.0786C55.6844 23.0786 55.1668 23.335 54.7957 23.8477C54.4246 24.3604 54.2391 25.1196 54.2391 26.1255Z" fill="#A1A1A1"/>
</svg>
